PathFileType	4	(X/Y/Z)	Static.trc																																																																									
DataRate	CameraRate	NumFrames	NumMarkers	Units	OrigDataRate	OrigDataStartFrame	OrigNumFrames																																																																					
100	100	6	25	mm	100	295	473																																																																					
Frame#	Time	AA			AI			Ant_Sh			CV7			GH			LAH			Lat_Sh			LCAJ			LPH			Post_Sh			RAH			RCAJ			RHLE			RHME			RPH			RUA			SJN			SXS			TS			TV8			centelbow			centpxt8			centijc7			centLPHRPH			ScapulaThoracicContactPt		
		X1	Y1	Z1	X2	Y2	Z2	X3	Y3	Z3	X4	Y4	Z4	X5	Y5	Z5	X6	Y6	Z6	X7	Y7	Z7	X8	Y8	Z8	X9	Y9	Z9	X10	Y10	Z10	X11	Y11	Z11	X12	Y12	Z12	X13	Y13	Z13	X14	Y14	Z14	X15	Y15	Z15	X16	Y16	Z16	X17	Y17	Z17	X18	Y18	Z18	X19	Y19	Z19	X20	Y20	Z20	X21	Y21	Z21	X22	Y22	Z22	X23	Y23	Z23	X24	Y24	Z24	X25	Y25	Z25
																																																																												
296	2.95	-219.6856384	1526.003418	715.6863403	-267.7871704	1354.790649	647.1549072	-106.4957809	1496.777344	722.4627686	-217.1248322	1594.204956	519.5126343	-163.5899506	1493.664551	718.512207	4.170712471	1771.592529	485.4154358	-166.8681641	1512.4375	751.0976563	-158.9741364	1556.731201	339.2656555	-204.3450012	1725.136963	462.9028015	-245.4702759	1489.200439	712.8466797	-8.840986252	1771.718506	580.0505981	-162.2072449	1557.958252	689.4493408	-173.1502533	1232.94873	851.6122437	-116.2337723	1178.686157	758.1997681	-205.8227539	1726.454224	578.7158203	-221.4347229	1337.875732	758.9690552	-54.80815506	1505.033691	521.9799805	4.129511833	1331.711548	523.2671509	-271.1000061	1496.608521	604.7970581	-234.0513306	1306.251953	516.6818848	-144.6920128	1205.817444	804.9060059	-114.9609094	1318.98175	519.9745178	-135.9664936	1549.619324	520.7463074	-205.0838776	1725.795593	520.8093109	-252.857605	1459.134196	655.8794352
297	2.96	-219.6211243	1526.032959	715.7061768	-267.6949158	1354.825439	647.161377	-106.4428406	1496.782959	722.4265137	-217.0664368	1594.168457	519.5267334	-163.5654602	1493.660034	718.5162964	4.092777729	1771.567627	485.2949219	-166.8227844	1512.461792	751.0853271	-158.9395294	1556.710693	339.2427063	-204.3076782	1725.129761	462.9330444	-245.4047699	1489.185913	712.9142456	-8.819088936	1771.718262	580.0914917	-162.1133728	1557.94812	689.4537354	-173.1319122	1232.953003	851.6480713	-116.248642	1178.685913	758.2148438	-205.8128204	1726.44873	578.7109985	-221.3963013	1337.864624	759.0015869	-54.82051849	1505.03186	521.9526367	4.19318819	1331.731689	523.2845459	-271.085083	1496.604248	604.7930908	-234.0095215	1306.222168	516.7088623	-144.6902771	1205.819458	804.9314575	-114.9081666	1318.976929	519.9967041	-135.9434776	1549.600159	520.7396851	-205.0602493	1725.789246	520.8220215	-252.8003743	1459.154215	655.8868815
298	2.97	-219.578598	1526.0354	715.7357788	-267.644989	1354.797119	647.1737061	-106.3507462	1496.781982	722.4265137	-217.046051	1594.212524	519.5263062	-163.5521545	1493.668945	718.4983521	4.170783043	1771.592529	485.4153137	-166.8155823	1512.463745	751.1253052	-158.8914795	1556.707886	339.2737732	-204.2089691	1725.152344	462.8788452	-245.3360291	1489.218018	712.8820801	-8.647483826	1771.719727	580.0579834	-162.0396729	1557.87793	689.5228882	-173.1231079	1232.982422	851.7044678	-116.2459641	1178.6604	758.2703857	-205.7350616	1726.430786	578.7196045	-221.3909149	1337.91687	759.0007324	-54.73069	1504.986938	522.0023193	4.241458893	1331.69397	523.2496948	-271.0126038	1496.605591	604.8614502	-234.0503998	1306.271484	516.7312012	-144.684536	1205.821411	804.9874268	-114.9044704	1318.982727	519.990448	-135.8883705	1549.599731	520.7643127	-204.9720154	1725.791565	520.7992249	-252.7453969	1459.146037	655.923645
299	2.98	-219.5145874	1526.06311	715.7560425	-267.625885	1354.843018	647.2272339	-106.2927322	1496.776855	722.4507446	-216.9691772	1594.240601	519.5844116	-163.4389038	1493.6604	718.5271606	3.999609232	1771.54126	485.2381287	-166.704834	1512.509399	751.1228638	-158.8621521	1556.712036	339.2991333	-204.1633606	1725.17395	462.9028625	-245.273819	1489.19751	712.9083862	-8.602842331	1771.718384	580.1417847	-161.9313049	1557.864014	689.5691528	-173.0895691	1233.001587	851.7353516	-116.2381897	1178.662354	758.324707	-205.683197	1726.451172	578.7424927	-221.3075714	1337.92627	759.0605469	-54.68149185	1505.019043	521.9865723	4.23871994	1331.719727	523.2555542	-270.974884	1496.621948	604.8920288	-233.964386	1306.261963	516.7402344	-144.6638794	1205.83197	805.0300293	-114.862833	1318.990845	519.9978943	-135.8253345	1549.629822	520.7854919	-204.9232788	1725.812561	520.8226776	-252.7051188	1459.176025	655.9584351
300	2.99	-219.4612274	1526.05188	715.7802734	-267.5240479	1354.859741	647.2381592	-106.2490082	1496.736572	722.4395752	-216.9428711	1594.221802	519.5621338	-163.4684906	1493.640747	718.5396118	4.265853405	1771.563232	485.4981995	-166.7089539	1512.476318	751.1317139	-158.8525696	1556.704468	339.3014221	-204.0794067	1725.170898	462.9110413	-245.1995087	1489.21875	712.9691162	-8.591936111	1771.712158	580.1472778	-161.872406	1557.852905	689.5960693	-173.0854034	1232.994263	851.7957764	-116.1702652	1178.675415	758.3440552	-205.6922302	1726.416382	578.6967163	-221.2682953	1337.916992	759.0930786	-54.65846252	1504.959961	521.9957886	4.246606827	1331.71582	523.2677612	-270.933197	1496.619873	604.9212036	-233.9641266	1306.262573	516.7402344	-144.6278343	1205.834839	805.0699158	-114.8587599	1318.989197	520.0039978	-135.8006668	1549.590881	520.7789612	-204.8858185	1725.79364	520.8038788	-252.6394908	1459.177165	655.9798787
301	3	-219.4607239	1526.053833	715.7798462	-267.4642029	1354.908325	647.2585449	-106.188591	1496.746094	722.4647217	-216.9130707	1594.262207	519.5942993	-163.4604492	1493.640015	718.5641479	4.349127293	1771.537476	485.5617065	-166.703125	1512.482788	751.1710205	-158.8145447	1556.692139	339.2793274	-203.9990082	1725.135498	462.9075623	-245.158493	1489.209106	713	-8.617628098	1771.642822	580.3013306	-161.768631	1557.818604	689.6790771	-173.0490265	1232.988037	851.77771	-116.1744003	1178.651733	758.3439941	-205.6403961	1726.436768	578.7196655	-221.2704468	1337.935059	759.0975952	-54.61378479	1504.95459	521.9977417	4.256032467	1331.666138	523.2411499	-270.9078369	1496.695557	604.9124756	-233.9172363	1306.244385	516.7125244	-144.6117134	1205.819885	805.0608521	-114.8306019	1318.955261	519.9768372	-135.7634277	1549.608398	520.7960205	-204.8197021	1725.786133	520.8136139	-252.6109212	1459.219238	655.9836222
